<?xml version="1.0" encoding="UTF-8" standalone="no"?>
<!-- Generator: Adobe Illustrator 19.1.0, SVG Export Plug-In . SVG Version: 6.00 Build 0)  -->

<svg
   xmlns:dc="http://purl.org/dc/elements/1.1/"
   xmlns:cc="http://creativecommons.org/ns#"
   xmlns:rdf="http://www.w3.org/1999/02/22-rdf-syntax-ns#"
   xmlns:svg="http://www.w3.org/2000/svg"
   xmlns="http://www.w3.org/2000/svg"
   xmlns:sodipodi="http://sodipodi.sourceforge.net/DTD/sodipodi-0.dtd"
   xmlns:inkscape="http://www.inkscape.org/namespaces/inkscape"
   version="1.1"
   id="Capa_1"
   x="0px"
   y="0px"
   viewBox="0 0 70.529 70.529"
   style="enable-background:new 0 0 70.529 70.529;"
   xml:space="preserve"
   sodipodi:docname="dumbbell.svg"
   inkscape:version="0.92.2 (5c3e80d, 2017-08-06)"><metadata
     id="metadata4136"><rdf:RDF><cc:Work
         rdf:about=""><dc:format>image/svg+xml</dc:format><dc:type
           rdf:resource="http://purl.org/dc/dcmitype/StillImage" /></cc:Work></rdf:RDF></metadata><defs
     id="defs4134" /><sodipodi:namedview
     pagecolor="#ffffff"
     bordercolor="#666666"
     borderopacity="1"
     objecttolerance="10"
     gridtolerance="10"
     guidetolerance="10"
     inkscape:pageopacity="0"
     inkscape:pageshadow="2"
     inkscape:window-width="1920"
     inkscape:window-height="1017"
     id="namedview4132"
     showgrid="false"
     inkscape:zoom="12.023423"
     inkscape:cx="35.2645"
     inkscape:cy="35.2645"
     inkscape:window-x="-8"
     inkscape:window-y="-8"
     inkscape:window-maximized="1"
     inkscape:current-layer="Capa_1"
     inkscape:snap-object-midpoints="true"
     inkscape:snap-others="false" /><path
     d="m 61.021544,30.524059 h -1.314191 v -3.682993 c 0,-1.854955 -1.559528,-3.364729 -3.475614,-3.364729 h -2.339701 v -1.232678 c 0,-1.854955 -1.559528,-3.364729 -3.475614,-3.364729 h -2.580132 c -1.916085,0 -3.475613,1.509774 -3.475613,3.364729 V 30.5106 H 26.722553 v -8.266941 c 0,-1.854955 -1.559529,-3.364729 -3.475614,-3.364729 h -2.580132 c -1.916085,0 -3.475614,1.509774 -3.475614,3.364729 v 2.291183 H 14.85231 c -1.916086,0 -3.475614,1.509773 -3.475614,3.364728 v 3.074175 h -1.315009 c -1.8514795,-7.91e-4 -3.3586691,1.508982 -3.3586691,3.363938 v 2.47169 c 0,1.854955 1.5071896,3.364729 3.3586691,3.364729 h 1.314191 v 3.682993 c 0,1.854955 1.559529,3.364729 3.475614,3.364729 h 2.338884 v 1.232678 c 0,1.854955 1.559528,3.364729 3.475613,3.364729 h 2.580132 c 1.916086,0 3.475614,-1.509774 3.475614,-3.364729 v -8.716627 h 17.638126 v 8.716627 c 0,1.854955 1.559528,3.364729 3.475614,3.364729 h 2.580132 c 1.916085,0 3.475613,-1.509774 3.475613,-3.364729 v -2.291183 h 2.339702 c 1.916085,0 3.475613,-1.509773 3.475613,-3.364729 v -3.073383 h 1.314191 c 1.852298,0 3.35867,-1.509773 3.35867,-3.364729 v -2.47169 c 0.0016,-1.854955 -1.505555,-3.364729 -3.357852,-3.364729 z m -50.959857,7.67079 c -0.7245628,0 -1.3141905,-0.621485 -1.3141905,-1.385476 v -2.47169 c 0,-0.763992 0.5896277,-1.385477 1.3141905,-1.385477 h 1.314191 v 5.242643 z m 4.790623,7.047722 c -0.789169,0 -1.431135,-0.621485 -1.431135,-1.385476 V 27.898779 c 0,-0.763992 0.641966,-1.385477 1.431135,-1.385477 h 2.338883 V 45.24178 H 14.85231 Z m 9.825764,3.211931 c 0,0.763991 -0.641966,1.385477 -1.431135,1.385477 h -2.580132 c -0.789169,0 -1.431135,-0.621486 -1.431135,-1.385477 V 22.243659 c 0,-0.763991 0.641966,-1.385477 1.431135,-1.385477 h 2.580132 c 0.789169,0 1.431135,0.621486 1.431135,1.385477 z m 2.044479,-10.69588 v -5.268769 h 17.638126 v 5.268769 z m 25.125006,10.69588 c 0,0.763991 -0.641966,1.385477 -1.431135,1.385477 h -2.580132 c -0.789168,0 -1.431135,-0.621486 -1.431135,-1.385477 V 22.243659 c 0,-0.763991 0.641967,-1.385477 1.431135,-1.385477 h 2.580132 c 0.789169,0 1.431135,0.621486 1.431135,1.385477 z m 5.815315,-5.655912 c 0,0.763992 -0.641966,1.385477 -1.431135,1.385477 H 53.892038 V 25.45559 h 2.339701 c 0.789169,0 1.431135,0.621485 1.431135,1.385476 z m 4.673678,-6.438112 c 0,0.763992 -0.589627,1.385477 -1.31419,1.385477 h -1.314191 v -5.242644 h 1.314191 c 0.724563,0 1.31419,0.621486 1.31419,1.385477 z"
     id="path4099"
     inkscape:connector-curvature="0"
     style="stroke-width:0.80464047" /><g
     id="g4101" /><g
     id="g4103" /><g
     id="g4105" /><g
     id="g4107" /><g
     id="g4109" /><g
     id="g4111" /><g
     id="g4113" /><g
     id="g4115" /><g
     id="g4117" /><g
     id="g4119" /><g
     id="g4121" /><g
     id="g4123" /><g
     id="g4125" /><g
     id="g4127" /><g
     id="g4129" /></svg>